# xmcd CD database file
#
# Track frame offsets:
#	150
#	10472
#	24915
#	39020
#	47347
#	75850
#	86530
#	99775
#	110470
#	124347
#	136300
#	149532
#	163205
#	175937
#	186940
#
# Disc length: 2658 seconds
#
# Revision: 0
# Processed by: cddbd v1.4PL0 Copyright (c) Steve Scherf et al.
# Submitted via: CDex 1.50Beta7
#
DISCID=b30a600f
DTITLE=Nat King Cole - The Unforgettable
DYEAR=1900
DGENRE=Jazz
TTITLE0=Sweet Georgia Brown
TTITLE1=Firm Fram Sauce
TTITLE2=Pitchin' Up a Boogie
TTITLE3=Yes Sir, That's My Baby
TTITLE4=Rosetta
TTITLE5=If you can't smile and say yes
TTITLE6=It's Only a Papermoon
TTITLE7=Beautiful Moons Ago
TTITLE8=I'm Lost
TTITLE9=Let's Spring One
TTITLE10=Sweet Lorraine
TTITLE11=Fine, Sweet and Tasty
TTITLE12=My Lipe Remember Your Kisses
TTITLE13=Got a Penny
TTITLE14=The Man on the Little White Keys
EXTD=
EXTT0=
EXTT1=
EXTT2=
EXTT3=
EXTT4=
EXTT5=
EXTT6=
EXTT7=
EXTT8=
EXTT9=
EXTT10=
EXTT11=
EXTT12=
EXTT13=
EXTT14=
PLAYORDER=
